<svg xmlns="http://www.w3.org/2000/svg" viewBox="0 0 1040 430" width="1040" height="430" role="img" aria-label="mini-dify 总体架构：浏览器通过 HTTP + SSE 访问 API；API 把运行作为 job 交给执行端；引擎调度节点，节点调用模型、工具、知识库；事件经队列或 Redis Stream 回到 API。" font-family="-apple-system, 'Segoe UI', 'PingFang SC', 'Microsoft YaHei', 'Noto Sans CJK SC', 'Noto Sans SC', sans-serif">
<title>mini-dify 总体架构：浏览器通过 HTTP + SSE 访问 API；API 把运行作为 job 交给执行端；引擎调度节点，节点调用模型、工具、知识库；事件经队列或 Redis Stream 回到 API。</title>
<defs><marker id="a-neutral" viewBox="0 0 10 10" refX="9" refY="5" markerWidth="7" markerHeight="7" orient="auto-start-reverse"><path d="M0,0 L10,5 L0,10 z" fill="#64748b"/></marker><marker id="a-neutral-s" viewBox="0 0 10 10" refX="9" refY="5" markerWidth="7" markerHeight="7" orient="auto-start-reverse"><path d="M0,0 L10,5 L0,10 z" fill="#64748b"/></marker><marker id="a-accent" viewBox="0 0 10 10" refX="9" refY="5" markerWidth="7" markerHeight="7" orient="auto-start-reverse"><path d="M0,0 L10,5 L0,10 z" fill="#2563eb"/></marker><marker id="a-accent-s" viewBox="0 0 10 10" refX="9" refY="5" markerWidth="7" markerHeight="7" orient="auto-start-reverse"><path d="M0,0 L10,5 L0,10 z" fill="#2563eb"/></marker><marker id="a-ok" viewBox="0 0 10 10" refX="9" refY="5" markerWidth="7" markerHeight="7" orient="auto-start-reverse"><path d="M0,0 L10,5 L0,10 z" fill="#16a34a"/></marker><marker id="a-ok-s" viewBox="0 0 10 10" refX="9" refY="5" markerWidth="7" markerHeight="7" orient="auto-start-reverse"><path d="M0,0 L10,5 L0,10 z" fill="#16a34a"/></marker><marker id="a-warn" viewBox="0 0 10 10" refX="9" refY="5" markerWidth="7" markerHeight="7" orient="auto-start-reverse"><path d="M0,0 L10,5 L0,10 z" fill="#d97706"/></marker><marker id="a-warn-s" viewBox="0 0 10 10" refX="9" refY="5" markerWidth="7" markerHeight="7" orient="auto-start-reverse"><path d="M0,0 L10,5 L0,10 z" fill="#d97706"/></marker><marker id="a-bad" viewBox="0 0 10 10" refX="9" refY="5" markerWidth="7" markerHeight="7" orient="auto-start-reverse"><path d="M0,0 L10,5 L0,10 z" fill="#dc2626"/></marker><marker id="a-bad-s" viewBox="0 0 10 10" refX="9" refY="5" markerWidth="7" markerHeight="7" orient="auto-start-reverse"><path d="M0,0 L10,5 L0,10 z" fill="#dc2626"/></marker><marker id="a-purple" viewBox="0 0 10 10" refX="9" refY="5" markerWidth="7" markerHeight="7" orient="auto-start-reverse"><path d="M0,0 L10,5 L0,10 z" fill="#7c3aed"/></marker><marker id="a-purple-s" viewBox="0 0 10 10" refX="9" refY="5" markerWidth="7" markerHeight="7" orient="auto-start-reverse"><path d="M0,0 L10,5 L0,10 z" fill="#7c3aed"/></marker><marker id="a-teal" viewBox="0 0 10 10" refX="9" refY="5" markerWidth="7" markerHeight="7" orient="auto-start-reverse"><path d="M0,0 L10,5 L0,10 z" fill="#0d9488"/></marker><marker id="a-teal-s" viewBox="0 0 10 10" refX="9" refY="5" markerWidth="7" markerHeight="7" orient="auto-start-reverse"><path d="M0,0 L10,5 L0,10 z" fill="#0d9488"/></marker><marker id="a-muted" viewBox="0 0 10 10" refX="9" refY="5" markerWidth="7" markerHeight="7" orient="auto-start-reverse"><path d="M0,0 L10,5 L0,10 z" fill="#cbd5e1"/></marker><marker id="a-muted-s" viewBox="0 0 10 10" refX="9" refY="5" markerWidth="7" markerHeight="7" orient="auto-start-reverse"><path d="M0,0 L10,5 L0,10 z" fill="#cbd5e1"/></marker></defs>
<rect x="0.5" y="0.5" width="1039" height="429" rx="14" fill="#ffffff" stroke="#e5e7eb"/>
<text x="24.0" y="34.0" font-size="15" text-anchor="start" fill="#1f2937" font-weight="700">mini-dify 总体架构（v1.0）</text>
<text x="24.0" y="54.0" font-size="12" text-anchor="start" fill="#6b7280">和 Dify 同构：API 只收请求、推事件；执行在线程或 Celery Worker 里</text>
<rect x="20.0" y="70.0" width="210.0" height="330.0" rx="12" fill="none" stroke="#2563eb" stroke-width="1.2" stroke-dasharray="5 4"/>
<text x="32.0" y="88.0" font-size="12" text-anchor="start" fill="#2563eb" font-weight="600">浏览器（React）</text>
<rect x="40.0" y="105.0" width="170.0" height="70.0" rx="8" fill="#f8fafc" stroke="#94a3b8" stroke-width="1.5"/>
<text x="125.0" y="136.8" font-size="13" text-anchor="middle" fill="#1f2937" font-weight="600">画布编辑器</text>
<text x="125.0" y="153.7" font-size="11" text-anchor="middle" fill="#6b7280">React Flow + Zustand</text>
<rect x="40.0" y="200.0" width="170.0" height="70.0" rx="8" fill="#f8fafc" stroke="#94a3b8" stroke-width="1.5"/>
<text x="125.0" y="231.8" font-size="13" text-anchor="middle" fill="#1f2937" font-weight="600">运行 / 追踪面板</text>
<text x="125.0" y="248.7" font-size="11" text-anchor="middle" fill="#6b7280">消费 SSE 事件</text>
<rect x="40.0" y="295.0" width="170.0" height="70.0" rx="8" fill="#f8fafc" stroke="#94a3b8" stroke-width="1.5"/>
<text x="125.0" y="326.8" font-size="13" text-anchor="middle" fill="#1f2937" font-weight="600">聊天 · 分享页</text>
<text x="125.0" y="343.6" font-size="11" text-anchor="middle" fill="#6b7280">Chatflow / WebApp</text>
<rect x="270.0" y="70.0" width="230.0" height="330.0" rx="12" fill="none" stroke="#64748b" stroke-width="1.2" stroke-dasharray="5 4"/>
<text x="282.0" y="88.0" font-size="12" text-anchor="start" fill="#64748b" font-weight="600">API 进程（FastAPI）</text>
<rect x="290.0" y="105.0" width="190.0" height="70.0" rx="8" fill="#f8fafc" stroke="#94a3b8" stroke-width="1.5"/>
<text x="385.0" y="136.8" font-size="13" text-anchor="middle" fill="#1f2937" font-weight="600">控制台 API</text>
<text x="385.0" y="153.7" font-size="11" text-anchor="middle" fill="#6b7280">/api/*（登录 + 租户）</text>
<rect x="290.0" y="200.0" width="190.0" height="70.0" rx="8" fill="#f8fafc" stroke="#94a3b8" stroke-width="1.5"/>
<text x="385.0" y="231.8" font-size="13" text-anchor="middle" fill="#1f2937" font-weight="600">开放接口</text>
<text x="385.0" y="248.7" font-size="11" text-anchor="middle" fill="#6b7280">/v1 · /web · /mcp · webhook</text>
<rect x="290.0" y="295.0" width="190.0" height="70.0" rx="8" fill="#eff6ff" stroke="#2563eb" stroke-width="1.5"/>
<text x="385.0" y="326.8" font-size="13" text-anchor="middle" fill="#1e3a8a" font-weight="600">App Generator</text>
<text x="385.0" y="343.6" font-size="11" text-anchor="middle" fill="#6b7280">prepare → 派发 → 订阅</text>
<rect x="580.0" y="70.0" width="440.0" height="330.0" rx="12" fill="none" stroke="#7c3aed" stroke-width="1.2" stroke-dasharray="5 4"/>
<text x="592.0" y="88.0" font-size="12" text-anchor="start" fill="#7c3aed" font-weight="600">执行端（线程 或 Celery Worker）</text>
<rect x="600.0" y="105.0" width="170.0" height="70.0" rx="8" fill="#f5f3ff" stroke="#7c3aed" stroke-width="1.5"/>
<text x="685.0" y="136.8" font-size="13" text-anchor="middle" fill="#4c1d95" font-weight="600">GraphEngine</text>
<text x="685.0" y="153.7" font-size="11" text-anchor="middle" fill="#6b7280">边状态 · 并行 · 分支</text>
<rect x="600.0" y="200.0" width="170.0" height="70.0" rx="8" fill="#f8fafc" stroke="#94a3b8" stroke-width="1.5"/>
<text x="685.0" y="225.6" font-size="12" text-anchor="middle" fill="#1f2937" font-weight="600">节点</text>
<text x="685.0" y="241.2" font-size="10" text-anchor="middle" fill="#6b7280">LLM · Agent · Tool · RAG</text>
<text x="685.0" y="254.2" font-size="10" text-anchor="middle" fill="#6b7280">Code · HTTP · 迭代</text>
<rect x="600.0" y="300.0" width="170.0" height="70.0" rx="8" fill="#f0fdfa" stroke="#0d9488" stroke-width="1.5"/>
<text x="685.0" y="331.8" font-size="13" text-anchor="middle" fill="#134e4a" font-weight="600">Layers</text>
<text x="685.0" y="348.6" font-size="11" text-anchor="middle" fill="#6b7280">持久化 · 执行限制</text>
<rect x="820.0" y="105.0" width="180.0" height="50.0" rx="8" fill="#f8fafc" stroke="#94a3b8" stroke-width="1.5"/>
<text x="910.0" y="127.1" font-size="12" text-anchor="middle" fill="#1f2937" font-weight="600">模型</text>
<text x="910.0" y="142.7" font-size="10" text-anchor="middle" fill="#6b7280">mock / OpenAI 兼容</text>
<rect x="820.0" y="170.0" width="180.0" height="50.0" rx="8" fill="#f8fafc" stroke="#94a3b8" stroke-width="1.5"/>
<text x="910.0" y="192.1" font-size="12" text-anchor="middle" fill="#1f2937" font-weight="600">工具 / MCP</text>
<text x="910.0" y="207.7" font-size="10" text-anchor="middle" fill="#6b7280">内置 · OpenAPI · 工作流</text>
<rect x="820.0" y="235.0" width="180.0" height="50.0" rx="8" fill="#f8fafc" stroke="#94a3b8" stroke-width="1.5"/>
<text x="910.0" y="257.1" font-size="12" text-anchor="middle" fill="#1f2937" font-weight="600">知识库</text>
<text x="910.0" y="272.7" font-size="10" text-anchor="middle" fill="#6b7280">向量 + BM25</text>
<rect x="820.0" y="300.0" width="180.0" height="70.0" rx="8" fill="#f8fafc" stroke="#94a3b8" stroke-width="1.5"/>
<text x="910.0" y="332.1" font-size="12" text-anchor="middle" fill="#1f2937" font-weight="600">SQLite / Postgres</text>
<text x="910.0" y="347.7" font-size="10" text-anchor="middle" fill="#6b7280">运行记录 · 应用 · 文档</text>
<path d="M210.0,140.0 L290.0,140.0" fill="none" stroke="#2563eb" stroke-width="1.6" marker-end="url(#a-accent)"/>
<rect x="233.2" y="124.0" width="33.5" height="15" rx="3" fill="#ffffff" opacity="0.92"/>
<text x="250.0" y="135.5" font-size="11" text-anchor="middle" fill="#2563eb">HTTP</text>
<path d="M290.0,330.0 L210.0,330.0" fill="none" stroke="#2563eb" stroke-width="1.6" marker-end="url(#a-accent)"/>
<rect x="216.7" y="314.0" width="66.5" height="15" rx="3" fill="#ffffff" opacity="0.92"/>
<text x="250.0" y="325.5" font-size="11" text-anchor="middle" fill="#2563eb">SSE 事件流</text>
<path d="M480.0,320.0 L530.0,320.0 L530.0,130.0 L600.0,130.0" fill="none" stroke="#64748b" stroke-width="1.6" marker-end="url(#a-neutral)"/>
<rect x="549.2" y="114.0" width="27.1" height="15" rx="3" fill="#ffffff" opacity="0.92"/>
<text x="562.8" y="125.5" font-size="11" text-anchor="middle" fill="#64748b">job</text>
<path d="M600.0,155.0 L556.0,155.0 L556.0,345.0 L480.0,345.0" fill="none" stroke="#7c3aed" stroke-width="1.6" stroke-dasharray="5 4" marker-end="url(#a-purple)"/>
<rect x="486.7" y="329.0" width="30.0" height="15" rx="3" fill="#ffffff" opacity="0.92"/>
<text x="501.7" y="340.5" font-size="11" text-anchor="middle" fill="#7c3aed">事件</text>
<path d="M685.0,175.0 L685.0,200.0" fill="none" stroke="#64748b" stroke-width="1.6" marker-end="url(#a-neutral)"/>
<path d="M770.0,220.0 L820.0,130.0" fill="none" stroke="#cbd5e1" stroke-width="1.6" marker-end="url(#a-muted)"/>
<path d="M770.0,235.0 L820.0,195.0" fill="none" stroke="#cbd5e1" stroke-width="1.6" marker-end="url(#a-muted)"/>
<path d="M770.0,250.0 L820.0,260.0" fill="none" stroke="#cbd5e1" stroke-width="1.6" marker-end="url(#a-muted)"/>
<path d="M770.0,335.0 L820.0,335.0" fill="none" stroke="#0d9488" stroke-width="1.6" marker-end="url(#a-teal)"/>
<rect x="785.5" y="319.0" width="19.0" height="15" rx="3" fill="#ffffff" opacity="0.92"/>
<text x="795.0" y="330.5" font-size="11" text-anchor="middle" fill="#0d9488">写</text>
</svg>
