<svg xmlns="http://www.w3.org/2000/svg" viewBox="0 0 1040 640" width="1040" height="640" role="img" aria-label="例 B（x=99）的逐步推演：边有 UNKNOWN / TAKEN / SKIPPED 三种状态；IF 选 true 后，未选分支一路跳过直到汇合节点，聚合节点在一条入边 TAKEN、一条 SKIPPED 时就绪。" font-family="-apple-system, 'Segoe UI', 'PingFang SC', 'Microsoft YaHei', 'Noto Sans CJK SC', 'Noto Sans SC', sans-serif">
<title>例 B（x=99）的逐步推演：边有 UNKNOWN / TAKEN / SKIPPED 三种状态；IF 选 true 后，未选分支一路跳过直到汇合节点，聚合节点在一条入边 TAKEN、一条 SKIPPED 时就绪。</title>
<defs><marker id="a-neutral" viewBox="0 0 10 10" refX="9" refY="5" markerWidth="7" markerHeight="7" orient="auto-start-reverse"><path d="M0,0 L10,5 L0,10 z" fill="#64748b"/></marker><marker id="a-neutral-s" viewBox="0 0 10 10" refX="9" refY="5" markerWidth="7" markerHeight="7" orient="auto-start-reverse"><path d="M0,0 L10,5 L0,10 z" fill="#64748b"/></marker><marker id="a-accent" viewBox="0 0 10 10" refX="9" refY="5" markerWidth="7" markerHeight="7" orient="auto-start-reverse"><path d="M0,0 L10,5 L0,10 z" fill="#2563eb"/></marker><marker id="a-accent-s" viewBox="0 0 10 10" refX="9" refY="5" markerWidth="7" markerHeight="7" orient="auto-start-reverse"><path d="M0,0 L10,5 L0,10 z" fill="#2563eb"/></marker><marker id="a-ok" viewBox="0 0 10 10" refX="9" refY="5" markerWidth="7" markerHeight="7" orient="auto-start-reverse"><path d="M0,0 L10,5 L0,10 z" fill="#16a34a"/></marker><marker id="a-ok-s" viewBox="0 0 10 10" refX="9" refY="5" markerWidth="7" markerHeight="7" orient="auto-start-reverse"><path d="M0,0 L10,5 L0,10 z" fill="#16a34a"/></marker><marker id="a-warn" viewBox="0 0 10 10" refX="9" refY="5" markerWidth="7" markerHeight="7" orient="auto-start-reverse"><path d="M0,0 L10,5 L0,10 z" fill="#d97706"/></marker><marker id="a-warn-s" viewBox="0 0 10 10" refX="9" refY="5" markerWidth="7" markerHeight="7" orient="auto-start-reverse"><path d="M0,0 L10,5 L0,10 z" fill="#d97706"/></marker><marker id="a-bad" viewBox="0 0 10 10" refX="9" refY="5" markerWidth="7" markerHeight="7" orient="auto-start-reverse"><path d="M0,0 L10,5 L0,10 z" fill="#dc2626"/></marker><marker id="a-bad-s" viewBox="0 0 10 10" refX="9" refY="5" markerWidth="7" markerHeight="7" orient="auto-start-reverse"><path d="M0,0 L10,5 L0,10 z" fill="#dc2626"/></marker><marker id="a-purple" viewBox="0 0 10 10" refX="9" refY="5" markerWidth="7" markerHeight="7" orient="auto-start-reverse"><path d="M0,0 L10,5 L0,10 z" fill="#7c3aed"/></marker><marker id="a-purple-s" viewBox="0 0 10 10" refX="9" refY="5" markerWidth="7" markerHeight="7" orient="auto-start-reverse"><path d="M0,0 L10,5 L0,10 z" fill="#7c3aed"/></marker><marker id="a-teal" viewBox="0 0 10 10" refX="9" refY="5" markerWidth="7" markerHeight="7" orient="auto-start-reverse"><path d="M0,0 L10,5 L0,10 z" fill="#0d9488"/></marker><marker id="a-teal-s" viewBox="0 0 10 10" refX="9" refY="5" markerWidth="7" markerHeight="7" orient="auto-start-reverse"><path d="M0,0 L10,5 L0,10 z" fill="#0d9488"/></marker><marker id="a-muted" viewBox="0 0 10 10" refX="9" refY="5" markerWidth="7" markerHeight="7" orient="auto-start-reverse"><path d="M0,0 L10,5 L0,10 z" fill="#cbd5e1"/></marker><marker id="a-muted-s" viewBox="0 0 10 10" refX="9" refY="5" markerWidth="7" markerHeight="7" orient="auto-start-reverse"><path d="M0,0 L10,5 L0,10 z" fill="#cbd5e1"/></marker></defs>
<rect x="0.5" y="0.5" width="1039" height="639" rx="14" fill="#ffffff" stroke="#e5e7eb"/>
<text x="24.0" y="34.0" font-size="15" text-anchor="start" fill="#1f2937" font-weight="700">边的三态 + 就绪规则 + 跳过传播（第 9 章例 B，x = 99）</text>
<text x="24.0" y="54.0" font-size="12" text-anchor="start" fill="#6b7280">就绪 = 入边全部有结论（无 UNKNOWN）且至少一条 TAKEN</text>
<path d="M102.0,195.0 L120.0,195.0" fill="none" stroke="#16a34a" stroke-width="2" marker-end="url(#a-ok)"/>
<path d="M182.0,195.0 L196.0,195.0 L196.0,150.0 L210.0,150.0" fill="none" stroke="#64748b" stroke-width="1.4" marker-end="url(#a-neutral)"/>
<text x="191.0" y="144.0" font-size="10" text-anchor="end" fill="#6b7280">true</text>
<path d="M182.0,195.0 L196.0,195.0 L196.0,240.0 L210.0,240.0" fill="none" stroke="#64748b" stroke-width="1.4" marker-end="url(#a-neutral)"/>
<text x="191.0" y="254.0" font-size="10" text-anchor="end" fill="#6b7280">false</text>
<path d="M272.0,240.0 L285.0,240.0" fill="none" stroke="#64748b" stroke-width="1.4" marker-end="url(#a-neutral)"/>
<path d="M272.0,150.0 L321.0,150.0 L321.0,195.0 L370.0,195.0" fill="none" stroke="#64748b" stroke-width="1.4" marker-end="url(#a-neutral)"/>
<path d="M347.0,240.0 L358.5,240.0 L358.5,195.0 L370.0,195.0" fill="none" stroke="#64748b" stroke-width="1.4" marker-end="url(#a-neutral)"/>
<path d="M432.0,195.0 L450.0,195.0" fill="none" stroke="#64748b" stroke-width="1.4" marker-end="url(#a-neutral)"/>
<rect x="40.0" y="180.0" width="62.0" height="30.0" rx="8" fill="#f0fdf4" stroke="#16a34a" stroke-width="1.5"/>
<text x="71.0" y="198.6" font-size="12" text-anchor="middle" fill="#14532d" font-weight="600">开始</text>
<rect x="120.0" y="180.0" width="62.0" height="30.0" rx="8" fill="#eff6ff" stroke="#2563eb" stroke-width="1.5"/>
<text x="151.0" y="198.6" font-size="12" text-anchor="middle" fill="#1e3a8a" font-weight="600">IF</text>
<rect x="210.0" y="135.0" width="62.0" height="30.0" rx="8" fill="#f8fafc" stroke="#94a3b8" stroke-width="1.5"/>
<text x="241.0" y="153.6" font-size="12" text-anchor="middle" fill="#1f2937" font-weight="600">大数</text>
<rect x="210.0" y="225.0" width="62.0" height="30.0" rx="8" fill="#f8fafc" stroke="#94a3b8" stroke-width="1.5"/>
<text x="241.0" y="243.6" font-size="12" text-anchor="middle" fill="#1f2937" font-weight="600">小数</text>
<rect x="285.0" y="225.0" width="62.0" height="30.0" rx="8" fill="#f8fafc" stroke="#94a3b8" stroke-width="1.5"/>
<text x="316.0" y="243.6" font-size="12" text-anchor="middle" fill="#1f2937" font-weight="600">再处理</text>
<rect x="370.0" y="180.0" width="62.0" height="30.0" rx="8" fill="#f8fafc" stroke="#94a3b8" stroke-width="1.5"/>
<text x="401.0" y="198.6" font-size="12" text-anchor="middle" fill="#1f2937" font-weight="600">聚合</text>
<rect x="450.0" y="180.0" width="62.0" height="30.0" rx="8" fill="#f8fafc" stroke="#94a3b8" stroke-width="1.5"/>
<text x="481.0" y="198.6" font-size="12" text-anchor="middle" fill="#1f2937" font-weight="600">结束</text>
<text x="30.0" y="102.0" font-size="13" text-anchor="start" fill="#1f2937" font-weight="700">① </text>
<text x="56.0" y="102.0" font-size="12" text-anchor="start" fill="#6b7280">开始完成：开始→IF 变 TAKEN，IF 就绪并运行</text>
<path d="M612.0,195.0 L630.0,195.0" fill="none" stroke="#16a34a" stroke-width="2" marker-end="url(#a-ok)"/>
<path d="M692.0,195.0 L706.0,195.0 L706.0,150.0 L720.0,150.0" fill="none" stroke="#16a34a" stroke-width="2" marker-end="url(#a-ok)"/>
<text x="701.0" y="144.0" font-size="10" text-anchor="end" fill="#6b7280">true</text>
<path d="M692.0,195.0 L706.0,195.0 L706.0,240.0 L720.0,240.0" fill="none" stroke="#cbd5e1" stroke-width="1.4" stroke-dasharray="5 4" marker-end="url(#a-muted)"/>
<text x="701.0" y="254.0" font-size="10" text-anchor="end" fill="#6b7280">false</text>
<path d="M782.0,240.0 L795.0,240.0" fill="none" stroke="#cbd5e1" stroke-width="1.4" stroke-dasharray="5 4" marker-end="url(#a-muted)"/>
<path d="M782.0,150.0 L831.0,150.0 L831.0,195.0 L880.0,195.0" fill="none" stroke="#64748b" stroke-width="1.4" marker-end="url(#a-neutral)"/>
<path d="M857.0,240.0 L868.5,240.0 L868.5,195.0 L880.0,195.0" fill="none" stroke="#cbd5e1" stroke-width="1.4" stroke-dasharray="5 4" marker-end="url(#a-muted)"/>
<path d="M942.0,195.0 L960.0,195.0" fill="none" stroke="#64748b" stroke-width="1.4" marker-end="url(#a-neutral)"/>
<rect x="550.0" y="180.0" width="62.0" height="30.0" rx="8" fill="#f0fdf4" stroke="#16a34a" stroke-width="1.5"/>
<text x="581.0" y="198.6" font-size="12" text-anchor="middle" fill="#14532d" font-weight="600">开始</text>
<rect x="630.0" y="180.0" width="62.0" height="30.0" rx="8" fill="#f0fdf4" stroke="#16a34a" stroke-width="1.5"/>
<text x="661.0" y="198.6" font-size="12" text-anchor="middle" fill="#14532d" font-weight="600">IF</text>
<rect x="720.0" y="135.0" width="62.0" height="30.0" rx="8" fill="#eff6ff" stroke="#2563eb" stroke-width="1.5"/>
<text x="751.0" y="153.6" font-size="12" text-anchor="middle" fill="#1e3a8a" font-weight="600">大数</text>
<rect x="720.0" y="225.0" width="62.0" height="30.0" rx="8" fill="#f9fafb" stroke="#d1d5db" stroke-width="1.5"/>
<text x="751.0" y="243.6" font-size="12" text-anchor="middle" fill="#9ca3af">小数</text>
<rect x="795.0" y="225.0" width="62.0" height="30.0" rx="8" fill="#f9fafb" stroke="#d1d5db" stroke-width="1.5"/>
<text x="826.0" y="243.6" font-size="12" text-anchor="middle" fill="#9ca3af">再处理</text>
<rect x="880.0" y="180.0" width="62.0" height="30.0" rx="8" fill="#f8fafc" stroke="#94a3b8" stroke-width="1.5"/>
<text x="911.0" y="198.6" font-size="12" text-anchor="middle" fill="#1f2937" font-weight="600">聚合</text>
<rect x="960.0" y="180.0" width="62.0" height="30.0" rx="8" fill="#f8fafc" stroke="#94a3b8" stroke-width="1.5"/>
<text x="991.0" y="198.6" font-size="12" text-anchor="middle" fill="#1f2937" font-weight="600">结束</text>
<text x="540.0" y="102.0" font-size="13" text-anchor="start" fill="#1f2937" font-weight="700">② </text>
<text x="566.0" y="102.0" font-size="12" text-anchor="start" fill="#6b7280">IF 选 true：先跳过 false 分支，传播到聚合时停下</text>
<path d="M102.0,415.0 L120.0,415.0" fill="none" stroke="#16a34a" stroke-width="2" marker-end="url(#a-ok)"/>
<path d="M182.0,415.0 L196.0,415.0 L196.0,370.0 L210.0,370.0" fill="none" stroke="#16a34a" stroke-width="2" marker-end="url(#a-ok)"/>
<text x="191.0" y="364.0" font-size="10" text-anchor="end" fill="#6b7280">true</text>
<path d="M182.0,415.0 L196.0,415.0 L196.0,460.0 L210.0,460.0" fill="none" stroke="#cbd5e1" stroke-width="1.4" stroke-dasharray="5 4" marker-end="url(#a-muted)"/>
<text x="191.0" y="474.0" font-size="10" text-anchor="end" fill="#6b7280">false</text>
<path d="M272.0,460.0 L285.0,460.0" fill="none" stroke="#cbd5e1" stroke-width="1.4" stroke-dasharray="5 4" marker-end="url(#a-muted)"/>
<path d="M272.0,370.0 L321.0,370.0 L321.0,415.0 L370.0,415.0" fill="none" stroke="#16a34a" stroke-width="2" marker-end="url(#a-ok)"/>
<path d="M347.0,460.0 L358.5,460.0 L358.5,415.0 L370.0,415.0" fill="none" stroke="#cbd5e1" stroke-width="1.4" stroke-dasharray="5 4" marker-end="url(#a-muted)"/>
<path d="M432.0,415.0 L450.0,415.0" fill="none" stroke="#64748b" stroke-width="1.4" marker-end="url(#a-neutral)"/>
<rect x="40.0" y="400.0" width="62.0" height="30.0" rx="8" fill="#f0fdf4" stroke="#16a34a" stroke-width="1.5"/>
<text x="71.0" y="418.6" font-size="12" text-anchor="middle" fill="#14532d" font-weight="600">开始</text>
<rect x="120.0" y="400.0" width="62.0" height="30.0" rx="8" fill="#f0fdf4" stroke="#16a34a" stroke-width="1.5"/>
<text x="151.0" y="418.6" font-size="12" text-anchor="middle" fill="#14532d" font-weight="600">IF</text>
<rect x="210.0" y="355.0" width="62.0" height="30.0" rx="8" fill="#f0fdf4" stroke="#16a34a" stroke-width="1.5"/>
<text x="241.0" y="373.6" font-size="12" text-anchor="middle" fill="#14532d" font-weight="600">大数</text>
<rect x="210.0" y="445.0" width="62.0" height="30.0" rx="8" fill="#f9fafb" stroke="#d1d5db" stroke-width="1.5"/>
<text x="241.0" y="463.6" font-size="12" text-anchor="middle" fill="#9ca3af">小数</text>
<rect x="285.0" y="445.0" width="62.0" height="30.0" rx="8" fill="#f9fafb" stroke="#d1d5db" stroke-width="1.5"/>
<text x="316.0" y="463.6" font-size="12" text-anchor="middle" fill="#9ca3af">再处理</text>
<rect x="370.0" y="400.0" width="62.0" height="30.0" rx="8" fill="#eff6ff" stroke="#2563eb" stroke-width="1.5"/>
<text x="401.0" y="418.6" font-size="12" text-anchor="middle" fill="#1e3a8a" font-weight="600">聚合</text>
<rect x="450.0" y="400.0" width="62.0" height="30.0" rx="8" fill="#f8fafc" stroke="#94a3b8" stroke-width="1.5"/>
<text x="481.0" y="418.6" font-size="12" text-anchor="middle" fill="#1f2937" font-weight="600">结束</text>
<text x="30.0" y="322.0" font-size="13" text-anchor="start" fill="#1f2937" font-weight="700">③ </text>
<text x="56.0" y="322.0" font-size="12" text-anchor="start" fill="#6b7280">大数完成：聚合入边 {TAKEN, SKIPPED} → 就绪</text>
<path d="M612.0,415.0 L630.0,415.0" fill="none" stroke="#16a34a" stroke-width="2" marker-end="url(#a-ok)"/>
<path d="M692.0,415.0 L706.0,415.0 L706.0,370.0 L720.0,370.0" fill="none" stroke="#16a34a" stroke-width="2" marker-end="url(#a-ok)"/>
<text x="701.0" y="364.0" font-size="10" text-anchor="end" fill="#6b7280">true</text>
<path d="M692.0,415.0 L706.0,415.0 L706.0,460.0 L720.0,460.0" fill="none" stroke="#cbd5e1" stroke-width="1.4" stroke-dasharray="5 4" marker-end="url(#a-muted)"/>
<text x="701.0" y="474.0" font-size="10" text-anchor="end" fill="#6b7280">false</text>
<path d="M782.0,460.0 L795.0,460.0" fill="none" stroke="#cbd5e1" stroke-width="1.4" stroke-dasharray="5 4" marker-end="url(#a-muted)"/>
<path d="M782.0,370.0 L831.0,370.0 L831.0,415.0 L880.0,415.0" fill="none" stroke="#16a34a" stroke-width="2" marker-end="url(#a-ok)"/>
<path d="M857.0,460.0 L868.5,460.0 L868.5,415.0 L880.0,415.0" fill="none" stroke="#cbd5e1" stroke-width="1.4" stroke-dasharray="5 4" marker-end="url(#a-muted)"/>
<path d="M942.0,415.0 L960.0,415.0" fill="none" stroke="#16a34a" stroke-width="2" marker-end="url(#a-ok)"/>
<rect x="550.0" y="400.0" width="62.0" height="30.0" rx="8" fill="#f0fdf4" stroke="#16a34a" stroke-width="1.5"/>
<text x="581.0" y="418.6" font-size="12" text-anchor="middle" fill="#14532d" font-weight="600">开始</text>
<rect x="630.0" y="400.0" width="62.0" height="30.0" rx="8" fill="#f0fdf4" stroke="#16a34a" stroke-width="1.5"/>
<text x="661.0" y="418.6" font-size="12" text-anchor="middle" fill="#14532d" font-weight="600">IF</text>
<rect x="720.0" y="355.0" width="62.0" height="30.0" rx="8" fill="#f0fdf4" stroke="#16a34a" stroke-width="1.5"/>
<text x="751.0" y="373.6" font-size="12" text-anchor="middle" fill="#14532d" font-weight="600">大数</text>
<rect x="720.0" y="445.0" width="62.0" height="30.0" rx="8" fill="#f9fafb" stroke="#d1d5db" stroke-width="1.5"/>
<text x="751.0" y="463.6" font-size="12" text-anchor="middle" fill="#9ca3af">小数</text>
<rect x="795.0" y="445.0" width="62.0" height="30.0" rx="8" fill="#f9fafb" stroke="#d1d5db" stroke-width="1.5"/>
<text x="826.0" y="463.6" font-size="12" text-anchor="middle" fill="#9ca3af">再处理</text>
<rect x="880.0" y="400.0" width="62.0" height="30.0" rx="8" fill="#f0fdf4" stroke="#16a34a" stroke-width="1.5"/>
<text x="911.0" y="418.6" font-size="12" text-anchor="middle" fill="#14532d" font-weight="600">聚合</text>
<rect x="960.0" y="400.0" width="62.0" height="30.0" rx="8" fill="#f0fdf4" stroke="#16a34a" stroke-width="1.5"/>
<text x="991.0" y="418.6" font-size="12" text-anchor="middle" fill="#14532d" font-weight="600">结束</text>
<text x="540.0" y="322.0" font-size="13" text-anchor="start" fill="#1f2937" font-weight="700">④ </text>
<text x="566.0" y="322.0" font-size="12" text-anchor="start" fill="#6b7280">结束完成：未完成集合为空 → 运行结束</text>
<line x1="30" y1="538" x2="1010" y2="538" stroke="#eef0f3" stroke-width="1"/>
<path d="M40.0,560.0 L86.0,560.0" fill="none" stroke="#64748b" stroke-width="1.4" marker-end="url(#a-neutral)"/>
<text x="96.0" y="564.0" font-size="12" text-anchor="start" fill="#1f2937">UNKNOWN：还没决定</text>
<path d="M290.0,560.0 L336.0,560.0" fill="none" stroke="#16a34a" stroke-width="2" marker-end="url(#a-ok)"/>
<text x="346.0" y="564.0" font-size="12" text-anchor="start" fill="#1f2937">TAKEN：已走过 / 已调度</text>
<path d="M540.0,560.0 L586.0,560.0" fill="none" stroke="#cbd5e1" stroke-width="1.4" stroke-dasharray="5 4" marker-end="url(#a-muted)"/>
<text x="596.0" y="564.0" font-size="12" text-anchor="start" fill="#1f2937">SKIPPED：在未选分支上</text>
<rect x="800.0" y="547.0" width="24.0" height="24.0" rx="8" fill="#eff6ff" stroke="#2563eb" stroke-width="1.5"/>
<text x="812.0" y="562.9" font-size="13" text-anchor="middle" fill="#1e3a8a" font-weight="600"></text>
<text x="834.0" y="564.0" font-size="12" text-anchor="start" fill="#1f2937">正在运行</text>
<text x="520.0" y="604.0" font-size="12" text-anchor="middle" fill="#6b7280">注意 ②：再处理→聚合 被跳过后，聚合还有一条入边是 UNKNOWN（大数→聚合），所以传播在这里停下；聚合没有被跳过。</text>
</svg>
